<svg fill="#fff" xmlns="http://www.w3.org/2000/svg" viewBox="0 0 50 50" width="100" height="100"><path d="M27.895 3.008a3.6 3.6 0 0 0-1.415.187c-1.976.63-2.914 2.73-2.289 4.625l1.645 5.325-7.242 2.476L17 10.508c-.621-1.996-2.703-2.945-4.574-2.313-1.973.63-2.906 2.73-2.285 4.625l1.605 5.14-5.363 1.833c-1.805.637-2.809 2.754-2.207 4.66C4.68 26.047 6.082 27 7.488 27c.403 0 .801-.105 1.106-.215l5.328-1.82 2.144 6.879-5.675 1.945c-1.907.637-2.809 2.758-2.207 4.664C8.688 40.047 9.988 41 11.492 41c.301 0 .703-.105 1.102-.215l5.66-1.91L20 44.477C20.52 45.949 21.977 47 23.43 47a3.71 3.71 0 0 0 1.144-.21c1.867-.634 2.906-2.735 2.285-4.63l-1.746-5.601 7.2-2.434 1.648 5.352C34.48 40.949 35.934 42 37.39 42c.414 0 .828-.105 1.14-.21 1.871-.634 2.91-2.735 2.285-4.63l-1.648-5.347 4.504-1.524c1.805-.742 2.805-2.863 2.105-4.773-.605-1.907-2.609-2.965-4.414-2.328l-4.394 1.5-2.121-6.875 4.757-1.625c1.907-.633 2.813-2.754 2.208-4.66-.602-2.016-2.606-2.97-4.415-2.333l-4.71 1.614-1.637-5.301a3.526 3.526 0 0 0-3.156-2.5ZM28 20.156l2.121 6.88-7.203 2.464-2.145-6.875Z"/></svg>